<?xml version="1.0" standalone="no"?>
<!DOCTYPE svg PUBLIC "-//W3C//DTD SVG 20010904//EN"
 "http://www.w3.org/TR/2001/REC-SVG-20010904/DTD/svg10.dtd">
<svg version="1.0" xmlns="http://www.w3.org/2000/svg"
 width="4096.000000pt" height="4096.000000pt" viewBox="0 0 4096.000000 4096.000000"
 preserveAspectRatio="xMidYMid meet">
<metadata>
Created by potrace 1.11, written by Peter Selinger 2001-2013
</metadata>
<g transform="translate(0.000000,4096.000000) scale(0.100000,-0.100000)"
fill="#000000" stroke="none">
<path d="M19988 35555 c-2 -1 -73 -6 -158 -9 -85 -4 -175 -9 -200 -11 -25 -2
-90 -6 -145 -10 -55 -4 -118 -8 -140 -10 -22 -3 -67 -7 -101 -9 -33 -3 -80 -7
-105 -10 -24 -3 -89 -10 -144 -16 -101 -11 -159 -18 -205 -25 -14 -2 -92 -13
-175 -24 -82 -12 -160 -23 -172 -25 -11 -3 -43 -8 -70 -12 -26 -3 -57 -8 -68
-10 -11 -2 -58 -11 -105 -19 -95 -17 -112 -20 -189 -36 -30 -6 -64 -12 -75
-14 -82 -12 -709 -155 -970 -221 -55 -14 -108 -28 -116 -30 -383 -95 -965
-279 -1325 -419 -206 -80 -259 -101 -360 -142 -123 -51 -119 -49 -305 -131
-324 -144 -807 -384 -992 -493 -27 -16 -51 -29 -53 -29 -3 0 -26 -13 -52 -28
-27 -16 -82 -48 -123 -72 -85 -49 -257 -152 -310 -185 -126 -78 -360 -230
-445 -288 -55 -37 -131 -89 -170 -115 -38 -26 -72 -49 -75 -52 -3 -3 -43 -32
-90 -65 -47 -32 -97 -68 -111 -79 -15 -12 -37 -29 -50 -38 -45 -31 -204 -147
-214 -156 -5 -4 -66 -51 -135 -102 -69 -52 -127 -97 -130 -100 -3 -3 -27 -24
-55 -45 -56 -45 -274 -224 -291 -240 -7 -5 -29 -24 -50 -41 -22 -18 -51 -42
-65 -55 -14 -13 -51 -46 -83 -74 -32 -27 -75 -66 -96 -85 -21 -19 -77 -71
-126 -115 -223 -204 -476 -457 -759 -759 -22 -24 -67 -74 -100 -111 -33 -37
-71 -80 -85 -95 -14 -15 -38 -44 -55 -64 -16 -21 -41 -50 -55 -65 -34 -38 -63
-72 -144 -171 -149 -181 -194 -238 -256 -320 -36 -47 -67 -87 -70 -90 -3 -3
-18 -23 -35 -45 -16 -22 -33 -44 -37 -50 -9 -11 -111 -148 -133 -180 -50 -70
-195 -272 -202 -281 -4 -5 -12 -17 -18 -26 -5 -9 -48 -72 -95 -139 -104 -153
-182 -271 -245 -369 -26 -41 -56 -87 -66 -102 -10 -15 -19 -29 -19 -32 0 -2
-33 -58 -73 -123 -40 -65 -109 -181 -152 -258 -44 -77 -82 -142 -85 -145 -3
-3 -13 -21 -22 -40 -10 -19 -38 -73 -64 -120 -53 -98 -276 -541 -324 -645
-349 -749 -627 -1538 -825 -2336 -30 -124 -57 -234 -59 -245 -2 -10 -11 -46
-20 -79 -20 -78 -117 -514 -121 -540 -1 -11 -5 -29 -8 -40 -3 -11 -8 -33 -11
-50 -11 -68 -17 -99 -30 -163 -8 -37 -17 -85 -20 -107 -4 -23 -9 -52 -11 -65
-9 -46 -14 -75 -19 -115 -3 -22 -8 -49 -10 -60 -2 -11 -7 -42 -10 -70 -4 -27
-9 -57 -11 -65 -2 -8 -7 -35 -10 -60 -2 -25 -7 -63 -10 -85 -12 -90 -25 -193
-30 -245 -12 -99 -13 -114 -20 -180 -4 -36 -8 -78 -10 -95 -2 -16 -6 -70 -10
-120 -4 -49 -8 -101 -10 -115 -2 -14 -7 -86 -10 -160 -4 -74 -10 -151 -13
-170 -11 -65 -14 -3940 -3 -4015 6 -38 13 -124 17 -190 3 -66 7 -136 9 -155 2
-19 6 -75 10 -125 3 -49 8 -101 10 -115 2 -14 7 -59 10 -100 4 -41 8 -86 10
-100 2 -14 6 -50 9 -80 11 -93 26 -213 32 -250 2 -19 9 -66 15 -105 6 -38 13
-90 16 -115 3 -25 7 -49 8 -55 4 -20 16 -91 26 -155 6 -36 17 -96 24 -135 8
-38 16 -86 19 -105 5 -32 50 -247 91 -440 9 -41 25 -111 37 -155 11 -44 22
-91 24 -105 8 -43 123 -508 160 -645 182 -673 436 -1369 733 -2014 84 -181
217 -451 282 -571 25 -47 66 -124 91 -171 100 -188 331 -580 463 -784 183
-285 511 -756 611 -882 19 -23 34 -44 34 -47 0 -3 7 -14 15 -23 14 -17 143
-185 195 -253 36 -48 113 -144 120 -150 3 -3 19 -23 36 -45 16 -22 34 -44 40
-50 6 -5 30 -35 55 -65 24 -30 48 -60 54 -66 5 -6 30 -35 55 -64 25 -29 54
-64 65 -76 11 -12 38 -44 60 -69 22 -26 56 -64 75 -84 19 -21 73 -80 120 -131
259 -284 569 -590 860 -850 40 -36 82 -74 94 -85 12 -11 53 -47 91 -80 39 -32
77 -66 86 -75 9 -8 30 -26 49 -40 31 -24 43 -33 100 -83 14 -12 41 -34 60 -48
19 -15 44 -35 55 -46 17 -15 88 -72 120 -95 6 -4 26 -20 45 -36 30 -25 282
-214 351 -264 13 -9 49 -35 79 -58 63 -46 55 -40 225 -161 137 -97 453 -311
476 -322 8 -4 66 -41 129 -82 63 -41 142 -90 175 -110 33 -20 76 -46 96 -58
237 -146 901 -499 1149 -610 19 -9 73 -33 120 -55 563 -257 1388 -555 1905
-687 28 -7 122 -32 210 -55 88 -23 167 -44 175 -45 8 -2 56 -13 105 -25 50
-12 97 -23 105 -25 8 -1 33 -8 55 -13 22 -6 51 -13 65 -16 28 -6 499 -109 570
-126 25 -5 61 -12 80 -15 47 -8 139 -24 170 -30 14 -3 39 -8 55 -10 17 -2 102
-16 190 -30 88 -14 178 -28 200 -31 22 -2 51 -6 65 -9 14 -2 68 -9 120 -15 52
-6 109 -13 125 -15 28 -4 87 -10 180 -20 22 -2 74 -7 115 -10 41 -4 91 -8 110
-10 19 -2 80 -7 135 -10 55 -3 118 -8 140 -10 245 -27 1285 -27 1625 0 64 5
161 12 275 20 44 4 90 8 103 10 12 2 62 7 110 11 48 3 96 8 107 10 11 2 45 6
75 9 69 7 128 14 160 20 14 2 49 7 79 10 30 4 63 8 73 10 11 2 52 9 91 14 130
18 213 32 283 45 12 2 39 7 60 10 68 11 406 77 489 96 45 10 92 21 105 23 23
5 120 27 400 94 130 31 118 28 220 53 47 12 92 23 100 25 35 7 148 37 190 49
69 21 193 56 215 61 73 17 679 213 765 248 14 6 30 11 35 12 56 13 621 242
870 353 284 126 703 335 955 477 41 23 98 54 125 70 28 15 148 86 268 159 120
72 226 136 235 141 101 60 685 455 702 475 3 3 18 14 35 24 16 11 34 23 40 28
5 5 69 51 140 103 72 52 141 103 155 114 14 10 61 46 105 80 44 33 89 69 101
78 11 10 36 29 54 43 50 38 161 127 208 168 15 13 43 35 62 50 19 15 41 34 50
42 9 8 38 33 64 55 27 22 61 51 76 65 15 14 54 48 86 75 32 28 74 65 93 83 20
18 59 53 86 78 242 221 550 528 775 773 138 150 149 162 193 214 23 27 56 64
72 82 17 19 35 40 40 47 9 12 107 128 130 154 10 12 48 58 110 134 20 25 44
54 52 65 48 58 327 424 353 462 8 12 85 120 171 240 268 374 544 799 697 1073
14 25 33 56 42 70 9 14 24 39 32 55 15 31 58 109 88 160 53 91 279 536 363
715 279 595 509 1205 702 1865 36 124 83 295 100 365 2 8 22 92 45 185 23 94
43 177 45 185 2 8 8 35 15 60 7 25 13 52 15 60 2 8 21 95 44 192 23 97 44 194
47 215 3 21 8 41 10 44 2 3 6 20 9 37 3 18 12 64 20 102 8 38 17 84 20 102 3
18 17 94 30 168 27 152 28 154 51 315 2 17 6 41 9 55 2 14 7 44 10 68 9 77 16
127 21 153 5 31 10 80 19 159 3 30 7 71 9 90 3 19 7 64 11 100 3 36 8 76 10
90 2 14 7 68 10 120 4 52 8 111 10 131 2 20 7 90 10 155 6 121 13 193 21 206
6 9 6 3927 0 3936 -7 11 -15 99 -21 227 -4 66 -8 140 -10 165 -3 25 -7 74 -10
110 -12 140 -15 177 -21 230 -3 30 -7 69 -9 85 -4 43 -16 145 -20 175 -2 14
-6 50 -10 80 -4 30 -8 66 -10 80 -3 14 -7 45 -10 70 -3 25 -7 56 -10 70 -2 14
-7 43 -10 65 -3 22 -7 51 -10 65 -2 14 -11 70 -20 125 -9 55 -22 132 -30 170
-8 39 -17 90 -20 115 -4 24 -8 48 -11 51 -2 4 -6 24 -10 45 -3 22 -28 140 -55
264 -28 124 -52 233 -54 243 -2 10 -7 27 -10 37 -3 10 -8 29 -10 42 -4 19 -42
187 -60 263 -35 147 -136 519 -193 711 -86 287 -266 813 -332 969 -5 11 -19
45 -30 75 -12 30 -26 64 -31 75 -4 11 -30 74 -58 140 -127 308 -398 882 -511
1080 -12 22 -39 72 -60 110 -49 92 -78 144 -154 274 -34 59 -66 114 -69 122
-4 8 -15 26 -25 40 -15 24 -76 124 -110 182 -21 37 -191 301 -200 312 -5 6
-31 44 -58 85 -150 229 -626 883 -753 1036 -14 17 -37 45 -51 61 -14 16 -34
42 -45 58 -11 15 -27 35 -35 44 -9 9 -36 41 -60 71 -25 30 -49 60 -55 66 -5 6
-28 32 -50 58 -22 27 -49 58 -60 71 -11 12 -42 48 -70 79 -27 32 -68 78 -90
101 -22 24 -69 76 -105 116 -198 221 -588 606 -865 854 -37 33 -79 71 -94 85
-16 14 -52 45 -81 70 -29 25 -58 50 -64 55 -27 26 -308 257 -371 305 -38 29
-72 56 -75 59 -3 3 -52 42 -110 86 -58 44 -109 83 -115 87 -10 8 -140 104
-180 132 -169 121 -232 166 -240 173 -29 25 -521 357 -560 379 -11 6 -47 28
-80 50 -65 42 -62 40 -161 99 -36 22 -78 48 -93 57 -14 10 -33 21 -41 25 -8 3
-46 25 -85 48 -342 203 -867 471 -1240 635 -66 29 -142 63 -170 75 -58 26
-454 184 -535 213 -30 11 -107 39 -170 62 -199 72 -568 191 -770 249 -41 12
-88 26 -105 31 -74 23 -626 161 -740 185 -11 2 -96 22 -190 43 -152 36 -438
97 -505 108 -14 3 -47 9 -75 14 -76 15 -261 46 -320 55 -11 1 -73 10 -137 19
-65 10 -125 18 -135 20 -10 2 -45 7 -78 10 -33 4 -71 9 -85 11 -28 4 -128 16
-175 20 -16 2 -59 6 -95 10 -36 4 -81 8 -100 10 -72 6 -206 17 -245 20 -22 2
-92 7 -155 11 -63 3 -140 8 -170 11 -66 5 -1077 13 -1082 8z"/>
</g>
</svg>
